<svg id="Layer_1" data-name="Layer 1" xmlns="http://www.w3.org/2000/svg" xmlns:xlink="http://www.w3.org/1999/xlink" viewBox="0 0 960 1080"><defs><linearGradient id="linear-gradient" x1="637.65" y1="553.65" x2="752.6" y2="553.65" gradientTransform="matrix(1, 0, 0, -1, -95.23, 1051.82)" gradientUnits="userSpaceOnUse"><stop offset="0" stop-color="gray" stop-opacity="0.25"/><stop offset="0.54" stop-color="gray" stop-opacity="0.12"/><stop offset="1" stop-color="gray" stop-opacity="0.1"/></linearGradient></defs><title>form_img1</title><path d="M484.4,446.9s12-14,30,0c0,0-11.4,12.3-30,3.6Z" fill="#38d39f"/><path d="M482.5,426s12.1-14.6,29.4-.8c0,0-13.7,12.9-29.4,4.2Z" fill="#38d39f"/><path d="M483.6,407.5s12.8-18.8,28.9-6.1c0,0-13.7,16.2-28.9,9.6Z" fill="#38d39f"/><path d="M486.1,467.5s-16.7-7.6-24.8,14c0,0,12.9,8.9,26.4-8.5Z" fill="#38d39f"/><path d="M483.6,448.2s-12-14-30,0c0,0,11.4,12.3,30,3.6Z" fill="#38d39f"/><path d="M482.1,426s-12.1-14.6-29.4-.8c0,0,13.7,12.9,29.4,4.2Z" fill="#38d39f"/><path d="M486.5,385.9s13.5-18.7,29.3-4.4c0,0-16,16.2-29.3,7.8Z" fill="#38d39f"/><path d="M487.6,385.8s-8.5-21.4-27.2-11.5c0,0,11.5,19.7,26.4,14.8Z" fill="#38d39f"/><path d="M483.6,408.1s-8.5-21.1-27-12c0,0,10,18.7,26.3,15.5Z" fill="#38d39f"/><path d="M523.8,551.3c-.2-.2-18-20.3-30.5-54.7a203.32,203.32,0,0,1-12.1-62.7c-.9-26.7,4.8-56.6,14.4-83.7l1,1.2c-21.6,60.9-13,113-1.6,144.4,12.3,34,30,54,30.2,54.2Z" fill="#444053"/><path d="M0,0V1080H960S945.6,733.8,634.3,605.4C247,445.8,99.4,262.4,0,0Z" fill="#2bca92"/><path d="M648.2,220.5c-36-1.3-70.2-12.9-102.9-25.6s-65.1-26.8-100.2-33.5c-22.6-4.3-48.4-4.9-66.5,7.2-17.5,11.7-23.2,31.7-26.2,50.4-2.3,14-3.6,28.8,2.6,41.9,4.4,9.1,12.1,16.8,17.4,25.5,18.5,30.4,5.4,67.9-14.7,97.5-9.4,13.9-20.4,27.2-27.7,42s-10.7,31.8-4.3,46.9,21.4,26.2,37.7,34.1c33.2,16.1,72.2,20.7,110.3,23.3,84.3,5.8,169.1,3.3,253.7.8,31.3-.9,62.7-1.9,93.5-6.7,17.1-2.7,34.8-7,47.2-17.2,15.8-13.1,19.7-35.2,9.1-51.6-17.7-27.5-66.7-34.3-79-63.8-6.8-16.3.2-34.3,10.1-49.4,21.2-32.3,56.8-60.6,58.7-97.6,1.3-25.4-15.8-50.8-42.3-62.8-27.7-12.6-66.2-11-86.7,9.8C717,213.4,679.9,221.6,648.2,220.5Z" fill="#38d39f" opacity="0.1" style="isolation:isolate"/><path d="M533.9,312.5s44.6,6.3,45.9,43.9c0,0-109.6,99-144.9,168.9,0,0-4.8-43.7-54.6-45.9C380.2,479.4,487.4,392.9,533.9,312.5Z" fill="#fcf4e9"/><path d="M474.3,407.3c-16.7-6-41.8,1.3-41.8,1.3-1.4-3.4,0-7.6,1.4-10.4a6.21,6.21,0,0,1,4.6-3.4l15.2-2.3L436,390.4l5.4-8.4c8.2-13.1,42.3,15.6,42.3,15.6s19.2,15.7,25.7,29l-8.8,9.7C500.6,436.2,487.8,412.8,474.3,407.3Z" fill="#c1664b"/><circle cx="488" cy="412.3" r="14.1" fill="#c1664b"/><path d="M488.8,404.3a8.09,8.09,0,1,1-8.9,7.2,8.16,8.16,0,0,1,8.9-7.2m.4-3.1a11.16,11.16,0,1,0,9.9,12.3,11.14,11.14,0,0,0-9.9-12.3Z" fill="#ce8e75"/><path d="M434.9,525.3s-56.2,10.6-54.6-45.9C380.2,479.4,426.8,479.4,434.9,525.3Z" fill="#fce3cd"/><path d="M380.2,479.4s32.6,17,32.7,38.5l14.8-12.4S415.7,480.2,380.2,479.4Z" fill="#fcceb4"/><ellipse cx="591" cy="592.4" rx="168.8" ry="22.8" fill="#38d39f" opacity="0.1" style="isolation:isolate"/><path d="M507.4,524.4s11.6-1.9,18.6,6.4c0,0-5.1,4-16.2-1.5Z" fill="#38d39f"/><path d="M506.1,524.3s-7.4,9.2-3.8,19.3c0,0,6.1-2.4,6.7-14.8Z" fill="#38d39f"/><path d="M499.5,509.2s4.7-8.6,23.3,3.4c0,0-2.5,5.8-10.7,5.3S501.6,513.7,499.5,509.2Z" fill="#38d39f"/><path d="M498.2,508.6s-9.7-1.1-10.6,21c0,0,6.1,1.3,10.5-5.7S500.7,513,498.2,508.6Z" fill="#38d39f"/><path d="M492.6,490.9s5.4-15.1,25.2-4.4c0,0-4.5,13.8-23.2,9.5Z" fill="#38d39f"/><path d="M486.5,468.3s10.3-15.2,28.5-1.1c0,0-6.4,14.3-26.9,6.5Z" fill="#38d39f"/><path d="M491,366.6s16-17.5,30-10.6c0,0-16.7,18.6-30.7,15.2Z" fill="#38d39f"/><path d="M496.6,348.3s18.5-21.5,29.3-14.3c0,0-13.6,16.7-30.5,18.4Z" fill="#38d39f"/><path d="M504.7,327s16.2-17.5,28-13.2c0,0-13.8,18.2-30.2,18.7Z" fill="#38d39f"/><path d="M512,307.1s17.9-16.8,25.7-13.8c0,0-12.9,18.7-26.4,17.6Z" fill="#38d39f"/><path d="M519.2,288.8s15.4-20.1,23.8-18.5c0,0-9.3,17.9-23.8,20.5Z" fill="#38d39f"/><path d="M527,264.1s13.6-15.4,21-15.4c0,0-10.7,20.6-21.5,20.4Z" fill="#38d39f"/><path d="M531.5,247.6l13.1-32s.7,29-14.8,38Z" fill="#38d39f"/><path d="M536.9,212.3s2.2-26.8.8-28.9c0,0,9.4,22.2-.9,40.8Z" fill="#38d39f"/><path d="M492.1,490.5s-13.6-8.5-22.5,12.2c0,0,12.1,8,24-7Z" fill="#38d39f"/><path d="M492.8,366.7s-3.3-23.5-18.9-25.6c0,0,3.3,24.8,16.8,29.9Z" fill="#38d39f"/><path d="M497,348.3S495.7,320,482.9,319c0,0,.4,21.5,12.7,33.3Z" fill="#38d39f"/><path d="M506,326.2s-3.8-23.5-16.1-26.4c0,0,1.5,22.8,14.9,32.2Z" fill="#38d39f"/><path d="M513.5,307.3s-.1-24.5-7.6-28.1c0,0-4.6,22.2,5.5,31.3Z" fill="#38d39f"/><path d="M519.8,288.5s-1.1-25.3-8.8-28.8c0,0-2.7,20,7.6,30.5Z" fill="#38d39f"/><path d="M528,266.1s0-20.6-5.6-25.4c0,0-5.5,22.5,2.7,29.5Z" fill="#38d39f"/><path d="M530.9,246.6l-5.4-34.2s-7.3,28,5.6,40.4Z" fill="#38d39f"/><path d="M532,212.6s-13.8-23-13.6-25.6c0,0,1.5,24.1,18.9,36.1Z" fill="#38d39f"/><path d="M533.6,205.8s-13.1-32.7-19-35.3c0,0,18.7,9.5,20.1,34.4Z" fill="#38d39f"/><path d="M526.3,269.3l-.9-.3c11-36,13.8-58.9,7.7-64.6l.7-.7C540.2,209.8,537.6,232.4,526.3,269.3Z" fill="#444053"/><path d="M496,353.4l-1.3-.5c1.2-3.3,2.4-6.6,3.8-9.9,11.5-28.7,21.3-55.4,27.6-75.8l1.2-.6c-6.3,20.5-15.9,48.2-27.4,76.9C498.4,346.8,497.1,350.2,496,353.4Z" fill="#444053"/><path d="M680.7,319.6h2.4a1.32,1.32,0,0,1,1.3,1.3v38a1.32,1.32,0,0,1-1.3,1.3h-2.4a1.32,1.32,0,0,1-1.3-1.3v-38A1.32,1.32,0,0,1,680.7,319.6Z" fill="#3a3768"/><path d="M517.2,287.8h.2a1.32,1.32,0,0,1,1.3,1.3v10.8a1.32,1.32,0,0,1-1.3,1.3h-.2a1.32,1.32,0,0,1-1.3-1.3V289.1A1.32,1.32,0,0,1,517.2,287.8Z" fill="#3a3768"/><path d="M517.1,312.3h.6a1.32,1.32,0,0,1,1.3,1.3v20.7a1.32,1.32,0,0,1-1.3,1.3h-.6a1.32,1.32,0,0,1-1.3-1.3V313.6A1.32,1.32,0,0,1,517.1,312.3Z" fill="#3a3768"/><path d="M517.1,343.7h.4a1.32,1.32,0,0,1,1.3,1.3v20.9a1.32,1.32,0,0,1-1.3,1.3h-.4a1.32,1.32,0,0,1-1.3-1.3V345A1.26,1.26,0,0,1,517.1,343.7Z" fill="#3a3768"/><path d="M539.1,243.7H660.4a21.68,21.68,0,0,1,21.7,21.7V556.7a21.68,21.68,0,0,1-21.7,21.7H539.1a21.68,21.68,0,0,1-21.7-21.7V265.4A21.81,21.81,0,0,1,539.1,243.7Z" fill="#3a3768"/><path d="M658.9,252.4H640v2.3a10.82,10.82,0,0,1-10.8,10.8H569.1a10.82,10.82,0,0,1-10.8-10.8h0v-2.3H540.6a13.08,13.08,0,0,0-13.1,13.1h0v291a13.14,13.14,0,0,0,13.1,13.1H658.8a13.14,13.14,0,0,0,13.1-13.1h0v-291a13,13,0,0,0-13-13.1Z" fill="#38d39f"/><path d="M586.1,253.7h18.7a2.2,2.2,0,0,1,2.2,2.1v.4a2.14,2.14,0,0,1-2.2,2.1H586.1a2.2,2.2,0,0,1-2.2-2.1v-.4A2.2,2.2,0,0,1,586.1,253.7Z" fill="#e6e8ec"/><circle cx="613" cy="256" r="2.7" fill="#e6e8ec"/><path d="M739.1,229s-46.8-2.8-41.3,30c0,0-1.1,5.8,4.2,8.4,0,0,.1-2.4,4.8-1.6a17.47,17.47,0,0,0,5.1.2,10.68,10.68,0,0,0,6.2-2.5h0s13.1-5.4,18.3-26.9c0,0,3.8-4.7,3.6-5.9l-7.9,3.4s2.7,5.7.6,10.4c0,0-.3-10.2-1.8-10-.3,0-4.1,2-4.1,2s4.6,9.9,1.1,17.1c0,0,1.3-12.2-2.6-16.4l-5.6,3.3s5.4,10.2,1.8,18.6c0,0,.9-12.8-2.9-17.8l-5,3.9s5.1,10.1,2,17c0,0-.4-14.9-3.1-16.1,0,0-4.4,3.9-5.1,5.5,0,0,3.5,7.3,1.3,11.2,0,0-1.3-9.9-2.4-10,0,0-4.4,6.6-4.8,11.1,0,0,.2-6.7,3.8-11.7a13,13,0,0,0-6.7,3.5s.7-4.6,7.8-5.1c0,0,3.6-5,4.6-5.3,0,0-7.1-.6-11.4,1.3,0,0,3.8-4.4,12.7-2.4l5-4.1s-9.3-1.3-13.3.1c0,0,4.5-3.9,14.6-1.1l5.4-3.2s-7.9-1.7-12.7-1.1c0,0,5-2.7,14.3.2l3.9-1.7s-5.8-1.1-7.5-1.3-1.8-.6-1.8-.6a19.85,19.85,0,0,1,10.8,1.2S739.2,229.6,739.1,229Z" fill="#38d39f"/><path d="M691.1,214.5S670,213.2,672.5,228a3.56,3.56,0,0,0,1.9,3.8s0-1.1,2.2-.7a8.88,8.88,0,0,0,2.3.1,5,5,0,0,0,2.8-1.2h0s6-2.4,8.3-12.2c0,0,1.7-2.1,1.6-2.7l-3.5,1.5s1.2,2.6.3,4.7c0,0-.1-4.6-.8-4.5-.1,0-1.8.9-1.8.9s2.1,4.5.5,7.7c0,0,.6-5.5-1.2-7.4l-2.5,1.5s2.5,4.6.8,8.4c0,0,.4-5.8-1.3-8l-2.3,1.8s2.3,4.6.9,7.7c0,0-.2-6.7-1.4-7.3a13.66,13.66,0,0,0-2.3,2.5s1.6,3.3.6,5.1c0,0-.6-4.5-1.1-4.5,0,0-2,3-2.2,5a11.06,11.06,0,0,1,1.7-5.3,5.87,5.87,0,0,0-3,1.6s.3-2.1,3.5-2.3a12.06,12.06,0,0,1,2.1-2.4,14.58,14.58,0,0,0-5.1.6s1.7-2,5.7-1.1l2.2-1.8s-4.2-.6-6,.1c0,0,2-1.8,6.6-.5l2.4-1.5a22,22,0,0,0-5.7-.5s2.3-1.2,6.5.1l1.8-.8s-2.6-.5-3.4-.6-.8-.3-.8-.3a8.6,8.6,0,0,1,5,.6C687.5,216.1,691.2,214.7,691.1,214.5Z" fill="#38d39f"/><rect x="542.3" y="284.3" width="115" height="244" opacity="0.1" style="isolation:isolate"/><path d="M653.7,596.3s-2.7-6.3-3.9-9.2a2.59,2.59,0,0,0-2.7-1.9v-.5l.2-2.6v-.5c2.1-.4,3.9-.8,3.9-.8L650,513.4s-.5-.7-1.9-5c-.7-2.1-3.9-4.8-6.9-6.9-.5-.3-.9-.6-1.4-.9a22.15,22.15,0,0,1,3.5-2.5c1.7-1,2.3-6.7,2.3-6.7l-.3.6c.3-.6,0-15,0-15l-1-15s-.7-17.9-6.3-22.5a33.25,33.25,0,0,0-12.6-6.3l-3.9-1h0l-7.2-1.8c-.2-.3-.4-.7-.6-1-.1-.1-.1-.3-.2-.4a16.78,16.78,0,0,0,7.1-13.7,24.52,24.52,0,0,0-.2-2.7.9.9,0,0,0-.1-.5,10.7,10.7,0,0,0,1.6-1.4,8.18,8.18,0,0,0,2-2.5h0c.1-.2.1-.4.2-.6v-.2c0-.1.1-.3.1-.4v-.8a1.27,1.27,0,0,0-.1-.6h0a13.32,13.32,0,0,0-.5-1.9,16.91,16.91,0,0,1-1.5-4.3c-.3-1.8,0-3.8-.8-5.4a4.83,4.83,0,0,0-3.4-2.3,7.55,7.55,0,0,0-4.2.5,4.65,4.65,0,0,1-2.1.5,4.19,4.19,0,0,1-1.5-.4,21.21,21.21,0,0,1-4.7-2.5,23.67,23.67,0,0,0-3.3-2.2,4.24,4.24,0,0,0-3.8-.1c-2.1,1-2.5,4-4.4,5.2-1.3.9-3,.8-4.6.9s-3.4.5-4.2,1.8a5,5,0,0,0-.3,3.2v.8a10,10,0,0,1-.6,4.2c-.8,2-2.2,4-2.2,6.1h0a3.4,3.4,0,0,0,.1,1c0,.2.1.3.2.5h0a12.44,12.44,0,0,0,1,2v.1a.35.35,0,0,0,.1.2c0,.1.1.2.1.3l.1.2a1,1,0,0,1,.1.3,3.4,3.4,0,0,1,.1,1,5.28,5.28,0,0,0-.1,1.3,1,1,0,0,0,.8.9,1.42,1.42,0,0,0,.6-.2,7.1,7.1,0,0,0,1.4-1v.6a16.77,16.77,0,0,0,5.4,10.4v1.1h0l-6.2,2a.77.77,0,0,0,.1.3l-.7.3h0a45.23,45.23,0,0,0-8.8,4.4c-.9.6-1.7,1.2-2.4,1.6a14.25,14.25,0,0,0-5.8,7l-.1.2c-.6,1.3-3.3,9.9-3.3,9.9a37.47,37.47,0,0,0-2.3,7.9s-3.3,10.4-2.4,17.2c0,0-2.6,9.8-1.6,11.3,0,0-1,4.2,3.5,8.5l-1.1.7c-3.5,2.2-8.5,5.7-9.3,8.5-1.3,4.3-1.9,5-1.9,5l-1.3,67.3s1.8.3,3.9.8v.5l.2,2.6v.6a2.59,2.59,0,0,0-2.7,1.9c-1.2,2.9-3.9,9.2-3.9,9.2s-6,5.5-2.4,10.7a3.39,3.39,0,0,0,.6.6c2.6,2.4,8.2.8,12.1-.7a11.45,11.45,0,0,0,5-4,1.71,1.71,0,0,1,1.3-.7,4.72,4.72,0,0,0,2.5-1.1,3.37,3.37,0,0,0,1.4-2.8V598l-.3-7.9s-.4-5.5-1.8-5.2l-.3.1-.1-.6h0l-.2-1.1-.1-.5h.8a33.69,33.69,0,0,1,2.5-11.2c2.3-4.9,3.8-44.6,3.8-44.6s28.3.5,29.2-2.2h1.7c1,2.7,27.6,2.8,27.6,2.8s1.5,39.7,3.8,44.6a18.54,18.54,0,0,1,1.2,3.3h0a35.24,35.24,0,0,1,1.3,7.9h.8l-.1.5-.2,1.1-.1.6-.4-.1c-1.3-.3-1.8,5.2-1.8,5.2l-.4,8a3.15,3.15,0,0,0,1.3,2.8,4.72,4.72,0,0,0,2.5,1.1,1.71,1.71,0,0,1,1.3.7,12.2,12.2,0,0,0,5,4c4.3,1.7,10.4,3.3,12.7.1C659.7,601.9,653.7,596.3,653.7,596.3ZM626.5,474.6a12,12,0,0,0,2,4.1c1.3,1.4.6,10.2.6,10.2a7.72,7.72,0,0,0-1.5.2c-.9-5.8-1.8-12.3-1.1-14.5Z" fill="url(#linear-gradient)"/><polygon points="565.1 585.5 553.9 586.6 553.6 582.8 553.4 580.3 553.1 576.5 563.7 577 564.5 581.9 564.7 582.9 564.7 582.9 565.1 585.5" fill="#8e6f7f"/><polygon points="646.5 577 646.1 580.8 645.9 583.4 645.6 587.1 634.4 586 634.9 583.5 635.1 582.4 635.9 577.6 646.5 577" fill="#8e6f7f"/><path d="M634.6,523l-33.2,1.6a33.79,33.79,0,0,1-4.5,0L565.2,523V497.8h69.5V523Z" fill="#5f5570"/><path d="M634.6,523l-33.2,1.6a33.79,33.79,0,0,1-4.5,0L565.2,523V497.8h69.5V523Z" opacity="0.1" style="isolation:isolate"/><path d="M607.6,446s-4.7,3.9-7.2,0c0,0-2.2,6.6,0,8.9l-.1.5-.4,2-5.1,42.7,4.2,7.3,7.7-9.7-.6-40-.3-2.3-.1-.6H607C607.1,454.8,610.6,448.8,607.6,446Z" opacity="0.1" style="isolation:isolate"/><path d="M608.7,446s-4.7,3.9-7.2,0c0,0-2.2,6.6,0,8.9l-.1.5-.4,2-5.1,42.7,4.2,7.3,7.7-9.7-.6-40-.3-2.2-.1-.6h1.3C608.3,454.8,611.7,448.8,608.7,446Z" opacity="0.1" style="isolation:isolate"/><path d="M564.5,581.9a41.67,41.67,0,0,1-7.1-.7c-1.2-.3-2.6-.6-4-.9l-.3-3.8,10.6.6Z" opacity="0.1" style="isolation:isolate"/><path d="M565.1,585.4l-11.2,1.1-.3-3.7a2.66,2.66,0,0,1,1.2.3c2,1.5,7.9.3,9.8-.2h0Z" opacity="0.1" style="isolation:isolate"/><path d="M646.5,577l-.3,3.8c-1.3.3-2.8.6-4,.9a33.53,33.53,0,0,1-7.1.7l.8-4.8Z" opacity="0.1" style="isolation:isolate"/><path d="M645.9,583.4l-.3,3.7L634.4,586l.4-2.5c2,.5,7.8,1.6,9.8.2A3.45,3.45,0,0,1,645.9,583.4Z" opacity="0.1" style="isolation:isolate"/><path d="M613.4,431a16.42,16.42,0,0,1-21.3-1.5c.1-1.7.1-3,.1-3s21.1-3.6,20.3,0A7.2,7.2,0,0,0,613.4,431Z" opacity="0.1" style="isolation:isolate"/><path d="M619.9,414.5a3.88,3.88,0,0,1-3.1.8c-2.5-.6-3.4-4.5-6-4.7s-4.3,3.3-7,3.3a7.1,7.1,0,0,1-3.1-1.3,10.31,10.31,0,0,0-6.7-.8c-2.9,1-3.9,3.7-5.7,5.8a4.74,4.74,0,0,1-1,1c0-.5-.1-1-.1-1.6a16.52,16.52,0,0,1,16.2-16.8,16.7,16.7,0,0,1,16.5,14.3Z" opacity="0.1" style="isolation:isolate"/><path d="M619.8,509.1l-3,.8c-.9-2.6-2.3-5.9-4.3-7.1a13.43,13.43,0,0,0,2.7-1.3Z" opacity="0.1" style="isolation:isolate"/><path d="M640.1,501.9l-2.3,1.9s-14.5,4.5-17.2,10.2c0,0-2.2-11.1-7-11.3,0,0,5.1-2,6.5-3.7l14.2-.7C636.3,499.5,638.3,500.6,640.1,501.9Z" opacity="0.1" style="isolation:isolate"/><path d="M604.6,514.4c-4.2,1.1-7-1.3-9.3-4.9a2.37,2.37,0,0,1,.4-3.3c.1-.1.2-.1.3-.2l.4.2C596.5,506.2,604.1,509.5,604.6,514.4Z" opacity="0.1" style="isolation:isolate"/><path d="M591.1,504.8c-4.6,2.2-5.5,5.3-5.6,7.5a21.62,21.62,0,0,0-4.3-1.4l8.3-6.7Z" opacity="0.1" style="isolation:isolate"/><path d="M583.8,516.8s-13.3-10.6-19.7-15.1a20,20,0,0,1-2.2-1.9c1.9-1.2,3.3-2,3.3-2l16.4.7c.4.8.7,1.3.7,1.3l8.9,5.8C580.5,509.1,583.8,516.8,583.8,516.8Z" opacity="0.1" style="isolation:isolate"/><path d="M606.4,454.8H601l-.1-.1.1-.5.7-1.8,4.7,1.8Z" opacity="0.1" style="isolation:isolate"/><path d="M614.5,432.6l7,1.8s-6.6,17.2-8.1,17.2l-8.4-4Z" opacity="0.1" style="isolation:isolate"/><path d="M616,434.8l-11.2,11.9-.3.3-.4-.2,9.8-15,.2.4A24.76,24.76,0,0,0,616,434.8Z" opacity="0.1" style="isolation:isolate"/><path d="M591.5,430.6l-6.1,1.9s6,18,7.6,19l10.8-4Z" opacity="0.1" style="isolation:isolate"/><path d="M604.8,446.7l-.3.3s-14.6-8.5-13.5-10.8a23.64,23.64,0,0,0,1.1-5.9V430Z" opacity="0.1" style="isolation:isolate"/><path d="M577.6,459.6a4.52,4.52,0,0,1,3.6,4.5c-.1,3.8,1.5-4.9,1.5-4.9Z" opacity="0.1" style="isolation:isolate"/><path d="M578.5,471.3a33.23,33.23,0,0,0,0,10.9c1,5.2.9,6.9,1.7,7.2S578.5,471.3,578.5,471.3Z" opacity="0.1" style="isolation:isolate"/><path d="M625.1,470.7a1.88,1.88,0,0,0-1.7,2.2h0a.37.37,0,0,0,.1.3C623.9,475.6,625.1,470.7,625.1,470.7Z" opacity="0.1" style="isolation:isolate"/><path d="M561.6,490.1s11.9-1,13.9,1.1S561.6,490.1,561.6,490.1Z" opacity="0.1" style="isolation:isolate"/><path d="M630.7,490.9s8.7-1.1,10.8.4" opacity="0.1" style="isolation:isolate"/><path d="M634.2,492.4s5.2.2,6.4.8" opacity="0.1" style="isolation:isolate"/><path d="M635.2,494.2s4.7-.2,5.4.6" opacity="0.1" style="isolation:isolate"/><path d="M568.6,520.3s4,2.1,3.6,4.3S568.6,520.3,568.6,520.3Z" opacity="0.1" style="isolation:isolate"/><path d="M565.1,521.3s6.2,8,5.3,10.6S565.1,521.3,565.1,521.3Z" opacity="0.1" style="isolation:isolate"/><path d="M631.3,522.7s-3.1,2.5-3,4.6" opacity="0.1" style="isolation:isolate"/><path d="M560.7,572.3s0,2.4,4.4,5.8" opacity="0.1" style="isolation:isolate"/><path d="M637.9,566.7a10.5,10.5,0,0,1-4.7,7.5" opacity="0.1" style="isolation:isolate"/><path d="M547.2,594.3s4.5-1.4,6.4,1.3" opacity="0.1" style="isolation:isolate"/><path d="M652.3,594.8s-7.5-.4-7.2,1.6" opacity="0.1" style="isolation:isolate"/><ellipse cx="802.4" cy="588.2" rx="15" ry="2.5" fill="#38d39f" opacity="0.1" style="isolation:isolate"/><ellipse cx="373" cy="608.9" rx="15" ry="2.5" fill="#38d39f" opacity="0.1" style="isolation:isolate"/><ellipse cx="430.9" cy="622.5" rx="15" ry="2.5" fill="#38d39f" opacity="0.1" style="isolation:isolate"/><ellipse cx="769.7" cy="615.3" rx="22.3" ry="3.8" fill="#38d39f"/><path d="M778.9,609.1a5.84,5.84,0,0,0,2.1-3.2,3,3,0,0,0-1.5-3.3c-1.4-.5-2.8.4-3.9,1.4s-2.4,2-3.8,1.8a5.9,5.9,0,0,0,1.8-5.5,2.22,2.22,0,0,0-.5-1.1,2.3,2.3,0,0,0-3,.2c-2.9,2-3.7,6-3.7,9.5a17,17,0,0,1-.1-3.9,4.07,4.07,0,0,0-1.5-3.5,4.19,4.19,0,0,0-2.2-.5,4.65,4.65,0,0,0-3.6,1c-1.1,1.2-.8,3.2.1,4.5a14,14,0,0,0,3.8,3,7.46,7.46,0,0,1,2.7,2.6c.1.1.1.3.2.5h8.1A29.79,29.79,0,0,0,778.9,609.1Z" fill="#38d39f"/><path d="M431.6,560.4s3,4-1.4,10-8.1,11.1-6.7,14.9c0,0,6.7-11.2,12.2-11.3S437.7,567.1,431.6,560.4Z" fill="#38d39f"/><path d="M431.6,560.4a3.1,3.1,0,0,1,.6,1.3c5.4,6.3,8.2,12.1,3.1,12.3-4.8.1-10.5,8.7-11.9,10.8,0,.2.1.3.2.5,0,0,6.7-11.2,12.2-11.3S437.7,567.1,431.6,560.4Z" opacity="0.1" style="isolation:isolate"/><path d="M437.3,565.5c0,1.4-.1,2.5-.4,2.5s-.4-1.1-.4-2.5.2-.7.4-.7S437.3,564,437.3,565.5Z" fill="#ffd037"/><path d="M439.3,567.1c-1.2.7-2.3,1.1-2.4.9s.8-.9,2.1-1.5.8-.2.8,0S440.5,566.5,439.3,567.1Z" fill="#ffd037"/><path d="M415.5,560.4s-3.1,4,1.4,10,8.1,11.1,6.7,14.9c0,0-6.7-11.2-12.2-11.3S409.5,567.1,415.5,560.4Z" fill="#38d39f"/><path d="M415.5,560.4a3.1,3.1,0,0,0-.6,1.3c-5.3,6.3-8.2,12.1-3.1,12.3,4.8.1,10.5,8.7,11.9,10.8,0,.2-.1.3-.2.5,0,0-6.7-11.2-12.2-11.3S409.5,567.1,415.5,560.4Z" opacity="0.1" style="isolation:isolate"/><path d="M409.8,565.5c0,1.4.2,2.5.4,2.5s.4-1.1.4-2.5-.2-.7-.4-.7S409.8,564,409.8,565.5Z" fill="#ffd037"/><path d="M407.9,567.1c1.2.7,2.3,1.1,2.4.9s-.8-.9-2.1-1.5-.7-.2-.8,0S406.7,566.5,407.9,567.1Z" fill="#ffd037"/><path d="M410.8,584.7s8.5-.3,11.1-2.1,13.1-4,13.8-1.1,12.8,14.6,3.2,14.7-22.4-1.5-25-3.1S410.8,584.7,410.8,584.7Z" fill="#a8a8a8"/><path d="M439,595.2c-9.6.1-22.4-1.5-25-3.1-2-1.2-2.7-5.5-3-7.4h-.3s.6,6.9,3.1,8.5,15.3,3.1,25,3.1c2.8,0,3.7-1,3.7-2.5C442.2,594.6,441.1,595.2,439,595.2Z" opacity="0.2" style="isolation:isolate"/><path d="M592.1,430.1s-11.1,3.7-15.2,6.8c-.9.6-1.7,1.2-2.4,1.6a13.83,13.83,0,0,0-5.6,6.8c0,.1-.1.1-.1.2-.5,1.3-3.2,9.7-3.2,9.7a34.77,34.77,0,0,0-2.2,7.8c-.3,3,15.8,11.3,15.8,11.3s-7.8,16.9-4.3,21.2,54.2,6.4,53,0-3.1-16.9-2.1-19.9L643,463.1s-.7-17.5-6.1-22.1a35.47,35.47,0,0,0-12.2-6.3L614,432s-3.8,9.5-8,10.7S592.7,438.2,592.1,430.1Z" fill="#eaeaf2"/><polygon points="607.3 497.1 599.6 506.8 595.4 499.5 600.5 456.7 600.9 454.8 601 454.3 601.7 452.5 606.4 454.3 606.4 454.9 606.7 457.1 607.3 497.1" fill="#bc8487"/><path d="M599.7,524.6c-.9,2.6-28.5,2.1-28.5,2.1s-1.5,38.9-3.7,43.7a34.4,34.4,0,0,0-2.4,10.9,41.14,41.14,0,0,1-7.8-.7c-3-.7-7.8-1.7-7.8-1.7l1.3-66s.6-.7,1.8-4.9c.8-2.7,5.7-6.2,9.1-8.3,1.9-1.2,3.3-2,3.3-2l16.4.7,10.1.4C591.7,498.8,600.6,522,599.7,524.6Z" fill="#5f5570"/><path d="M567.2,596.3a3.37,3.37,0,0,1-1.3,2.7,5.28,5.28,0,0,1-2.4,1.1,1.71,1.71,0,0,0-1.3.7,10.65,10.65,0,0,1-4.9,4c-3.8,1.5-9.3,3-11.8.7a2.65,2.65,0,0,1-.5-.6c-3.5-5.1,2.3-10.5,2.3-10.5s2.6-6.2,3.8-9a2.79,2.79,0,0,1,3.5-1.7c.1,0,.2.1.3.1,2.2,1.6,9,.1,10.3-.3s1.7,5.1,1.7,5.1l.3,7.7Z" fill="#bc8487"/><path d="M650,579.5s-4.8.9-7.8,1.7a41.14,41.14,0,0,1-7.8.7A34.4,34.4,0,0,0,632,571c-2.2-4.8-3.7-43.7-3.7-43.7s-26-.2-26.9-2.7,11.3-25,11.3-25l7.5-.4,14.2-.8c2,1.1,3.9,2.3,5.7,3.5,2.9,2,6.1,4.6,6.7,6.7,1.3,4.2,1.8,4.9,1.8,4.9Z" fill="#5f5570"/><path d="M644.7,584.2a2.73,2.73,0,0,1,3.7,1.3l.1.3c1.2,2.8,3.8,9,3.8,9s5.8,5.4,2.3,10.5c-2.2,3.2-8.2,1.6-12.4,0a11.31,11.31,0,0,1-4.9-4,1.71,1.71,0,0,0-1.3-.7,5.65,5.65,0,0,1-2.5-1.1,3.1,3.1,0,0,1-1.3-2.7l.3-7.8s.4-5.4,1.7-5.1S642.5,585.8,644.7,584.2Z" fill="#bc8487"/><path d="M616,434.8l-11.2,11.9-.3.3-.4-.2c-2.3-1.4-14.1-8.5-13.1-10.6a23.64,23.64,0,0,0,1.1-5.9v-.8c.1-1.7.1-3,.1-3s21.1-3.6,20.3,0a7,7,0,0,0,.9,4.5,7.46,7.46,0,0,0,.7,1.2A15.72,15.72,0,0,0,616,434.8Z" fill="#ffc4d0"/><path d="M620.1,417.2a16.48,16.48,0,0,1-32.9,1.6c0-.5-.1-1-.1-1.6a16.5,16.5,0,0,1,33-.6v.6Z" fill="#ffc4d0"/><path d="M619.8,509.1l-3,.8-6.9,1.9a15.42,15.42,0,0,1-5.3,2.6c-4.2,1.1-7-1.3-9.3-4.9a2.37,2.37,0,0,1,.4-3.3c.1-.1.2-.1.3-.2,2.9-2.2,10-2.9,12.2-2.6a10,10,0,0,0,4.2-.6,13.43,13.43,0,0,0,2.7-1.3Z" fill="#ffc4d0"/><path d="M639.9,458.4l3.2,4.7,1,14.7s.3,14.2,0,14.7l.3-.6s-.5,5.6-2.2,6.5a55.64,55.64,0,0,0-5.4,4.2s-14.4,4.5-17.2,10.2c0,0-2.2-11.1-7-11.3,0,0,7.1-2.8,7-4.6,0,0,5.4-4.9,5.8-6.1s3.1-1.4,3.1-1.4.6-8.6-.6-10a12.52,12.52,0,0,1-2-4Z" fill="#eaeaf2"/><path d="M602.8,518.9c-5,7-14.3-2.7-15-4.7a3.79,3.79,0,0,0-2.3-1.8,21.62,21.62,0,0,0-4.3-1.4l8.3-6.7,1.6.6,4.9,2C595.9,506.8,607.8,511.9,602.8,518.9Z" fill="#ffc4d0"/><path d="M566,461.4l-2.6,1.6s-3.2,10.1-2.4,16.8c0,0-2.5,9.6-1.5,11.1,0,0-1.3,5.1,5.1,9.7s19.7,15.1,19.7,15.1-3.3-7.8,7.4-11.3l-8.9-5.8s-3-5.9-5.8-7.2c0,0-2.2-2.2-.8-3.8s2.5-3.2,2.5-4.7.6-8.8.6-8.8l1.7-7.8Z" fill="#eaeaf2"/><path d="M608.2,445.4s-4.7,3.9-7.2,0c0,0-2.2,6.6,0,8.9h6.7S611.2,448.3,608.2,445.4Z" fill="#bc8487"/><path d="M614,432l7,1.8s-6.7,17.2-8.1,17.2l-8.4-4Z" fill="#eaeaf2"/><path d="M592.1,430.1,586,432s6,18.1,7.6,19l10.8-4Z" fill="#eaeaf2"/><path d="M585.1,406.8l2.1,9.5s21.7,7.1,32.3-5.7l-.1-10.6Z" fill="#243e5f"/><path d="M585.1,406.8l.8,3.4s20.1,6.1,33.5-6.6v-3.5Z" fill="#172741"/><path d="M567.7,421.6l1.7,1.1a.8.8,0,0,0,1-.2l12.9-18.2h0l-15.6,16.2A.65.65,0,0,0,567.7,421.6Z" fill="#243e5f"/><circle cx="578.2" cy="410.6" r="1.3" fill="#243e5f"/><polygon points="598 383.4 567 403.4 602.8 410 634.9 390.5 598 383.4" fill="#243e5f"/></svg>