<svg xmlns="http://www.w3.org/2000/svg" viewBox="0 0 304.76 126.47"><title>Asset 2</title><g id="Layer_2" data-name="Layer 2"><g id="Layer_1-2" data-name="Layer 1"><path d="M179.91,122.22a38.17,38.17,0,0,1-38.27-34.58,2.1,2.1,0,0,0-2.11-1.9h0a2.12,2.12,0,0,0-2.11,2.33,42.41,42.41,0,0,0,42.49,38.4H304.76v-4.25Zm0-81.1a42.42,42.42,0,0,0-42.38,37.27,2.09,2.09,0,0,0,2.06,2.33h.1a2.1,2.1,0,0,0,2.07-1.86,38.16,38.16,0,0,1,38.15-33.5H304.76V41.12Z" fill="#fcf9bf" opacity="0.26"/><g opacity="0.26"><path d="M42.68,4.25H304.76V0H42.68a42.68,42.68,0,1,0,0,85.35H304.76V81.1H42.68a38.43,38.43,0,1,1,0-76.85Z" fill="#317ac7"/></g></g></g></svg>