<svg id="Layer_1" data-name="Layer 1" xmlns="http://www.w3.org/2000/svg" viewBox="0 0 32 24"><title>camera</title><path d="M29.22,24H2.78A2.8,2.8,0,0,1,0,21.18V5.65A2.81,2.81,0,0,1,2.78,2.82h.7A1.4,1.4,0,0,1,4.87,1.41H6.26A1.4,1.4,0,0,1,7.65,2.82H9a2.48,2.48,0,0,0,1.39-.7L11.83.71A1.92,1.92,0,0,1,13.22,0h5.56a1.75,1.75,0,0,1,1.39.71l1.4,1.41a2.48,2.48,0,0,0,1.39.7h6.26A2.81,2.81,0,0,1,32,5.65V21.18A2.8,2.8,0,0,1,29.22,24ZM30.61,5.65a1.4,1.4,0,0,0-1.39-1.41H22.8a4,4,0,0,1-2.22-1.11L19.1,1.61,19,1.51a.42.42,0,0,0-.25-.1H13.22c-.11,0-.26.13-.3.16l-.05.07L11.42,3.12A4,4,0,0,1,9.2,4.23H2.78A1.4,1.4,0,0,0,1.39,5.65V21.18a1.4,1.4,0,0,0,1.39,1.41H29.22a1.4,1.4,0,0,0,1.39-1.41ZM16,21.18a7.77,7.77,0,1,1,7.65-7.77A7.71,7.71,0,0,1,16,21.18ZM16,7.06a6.35,6.35,0,1,0,6.26,6.35A6.3,6.3,0,0,0,16,7.06Zm0,9.88a3.53,3.53,0,1,1,3.48-3.53A3.51,3.51,0,0,1,16,16.94Zm0-5.65a2.12,2.12,0,1,0,2.09,2.12A2.11,2.11,0,0,0,16,11.29ZM6.26,8.47H3.48a.7.7,0,0,1-.7-.71V6.35a.7.7,0,0,1,.7-.7H6.26a.7.7,0,0,1,.7.7V7.76A.7.7,0,0,1,6.26,8.47Z" fill="#646464"/></svg>